<svg viewBox="0 0 20 20">
	<path transform="scale(0.20 0.20)" d="M 72.975 58.994 H 31.855 c -1.539 0 -2.897 -1.005 -3.347 -2.477 L 15.199 13.006 H 3.5 c -1.933 0 -3.5 -1.567 -3.5 -3.5 s 1.567 -3.5 3.5 -3.5 h 14.289 c 1.539 0 2.897 1.005 3.347 2.476 l 13.309 43.512 h 36.204 l 10.585 -25.191 H 45 c -1.933 0 -3.5 -1.567 -3.5 -3.5 s 1.567 -3.5 3.5 -3.5 h 41.5 c 1.172 0 2.267 0.587 2.915 1.563 s 0.766 2.212 0.312 3.293 L 76.201 56.85 C 75.655 58.149 74.384 58.994 72.975 58.994 z" />
	<circle transform="scale(0.20 0.20)" cx="28.88" cy="74.33" r="6.16" />
	<circle transform="scale(0.20 0.20)" cx="74.59" cy="74.33" r="6.16" />
</svg>