<svg viewBox="0 0 100 90">
<g transform="translate(4 4)">
	<path d="M 82.71 50.362 c 0 -0.399 -0.08 -0.803 -0.244 -1.185 c -0.474 -1.101 -1.558 -1.814 -2.756 -1.814 H 60.58 V 3 c 0 -1.657 -1.343 -3 -3 -3 H 32.42 c -1.657 0 -3 1.343 -3 3 v 44.363 H 10.29 c -1.199 0 -2.282 0.714 -2.756 1.814 c -0.473 1.103 -0.246 2.38 0.578 3.249 l 34.71 36.637 C 43.389 89.661 44.176 90 45 90 s 1.611 -0.339 2.178 -0.937 l 34.71 -36.637 C 82.426 51.858 82.71 51.116 82.71 50.362 z M 54.58 6 v 44.363 c 0 1.657 1.343 3 3 3 h 15.155 L 45 82.638 L 17.265 53.363 H 32.42 c 1.657 0 3 -1.343 3 -3 V 6 H 54.58 z" />
</g>
</svg>