<svg viewBox="0 0 24 24" class=""><path d="M7.857 4h8.257a4.355 4.355 0 014.371 4.373v8.254A4.355 4.355 0 0116.114 21H7.857a4.355 4.355 0 01-4.372-4.373V8.373A4.355 4.355 0 017.857 4zm8.257 15.177a2.561 2.561 0 002.55-2.55V8.373a2.566 2.566 0 00-2.55-2.55H7.857a2.561 2.561 0 00-2.55 2.55v8.254a2.566 2.566 0 002.55 2.55h8.257zm-4.129-9.472a3.036 3.036 0 103.036 3.04 3.011 3.011 0 00-3.036-3.04zm2.793-1.21a1.15 1.15 0 011.215-1.218 1.221 1.221 0 011.214 1.219 1.214 1.214 0 01-2.429 0z"></path></svg>