<svg viewBox="0 0 20 20">
	<path transform="scale(0.20 0.20)" d="M 81.692 10.029 H 8.308 C 3.727 10.029 0 13.756 0 18.337 v 39.584 c 0 4.581 3.727 8.308 8.308 8.308 h 7.082 v 12.741 c 0 0.371 0.205 0.711 0.533 0.885 c 0.146 0.077 0.307 0.115 0.467 0.115 c 0.198 0 0.395 -0.059 0.564 -0.174 l 19.862 -13.567 h 44.876 c 4.581 0 8.308 -3.727 8.308 -8.308 V 18.337 C 90 13.756 86.273 10.029 81.692 10.029 z M 27.562 58.582 c -3.112 0 -5.719 -2.18 -6.388 -5.092 h 12.769 C 33.268 56.412 30.666 58.582 27.562 58.582 z M 40.61 50.49 H 14.513 c -1.556 0 -2.822 -1.267 -2.822 -2.823 c 0 -1.656 0.723 -3.224 1.983 -4.301 c 0.592 -0.505 0.931 -1.242 0.931 -2.02 v -9.601 c 0 -7.145 5.813 -12.957 12.957 -12.957 s 12.957 5.813 12.957 12.957 v 9.601 c 0 0.778 0.339 1.515 0.931 2.02 c 1.26 1.077 1.983 2.645 1.983 4.301 C 43.433 49.224 42.167 50.49 40.61 50.49 z M 76.809 50.517 H 52.571 c -1.104 0 -2 -0.896 -2 -2 s 0.896 -2 2 -2 h 24.237 c 1.104 0 2 0.896 2 2 S 77.913 50.517 76.809 50.517 z M 76.809 39.225 H 52.571 c -1.104 0 -2 -0.896 -2 -2 s 0.896 -2 2 -2 h 24.237 c 1.104 0 2 0.896 2 2 S 77.913 39.225 76.809 39.225 z M 76.809 27.934 H 52.571 c -1.104 0 -2 -0.896 -2 -2 s 0.896 -2 2 -2 h 24.237 c 1.104 0 2 0.896 2 2 S 77.913 27.934 76.809 27.934 z"/>
</svg>