<svg viewBox="0 0 24 24" class=""><path d="M3.917 17.765a2.94 2.94 0 001.98.82c1.437.146 6.107.191 6.107.191s3.775-.006 6.289-.199a2.486 2.486 0 001.799-.812c.386-.568.63-1.22.714-1.901.112-1.03.172-2.065.18-3.101v-1.454a30.817 30.817 0 00-.18-3.1 4.32 4.32 0 00-.714-1.903 2.473 2.473 0 00-1.8-.81c-2.513-.195-6.284-.195-6.284-.195H12s-3.77 0-6.284.195a2.476 2.476 0 00-1.799.81 4.318 4.318 0 00-.714 1.903 30.782 30.782 0 00-.18 3.1v1.454c.008 1.036.068 2.07.18 3.1a4.31 4.31 0 00.714 1.902zM9.761 8.67l5.615 3.369-5.615 3.369V8.67z"></path></svg>